<?xml version="1.0" encoding="utf-8"?>
<!-- Generator: Adobe Illustrator 16.0.0, SVG Export Plug-In . SVG Version: 6.00 Build 0)  -->
<!DOCTYPE svg PUBLIC "-//W3C//DTD SVG 1.1//EN" "http://www.w3.org/Graphics/SVG/1.1/DTD/svg11.dtd">
<svg version="1.1"
	 id="svg2" xmlns:dc="http://purl.org/dc/elements/1.1/" xmlns:cc="http://creativecommons.org/ns#" xmlns:rdf="http://www.w3.org/1999/02/22-rdf-syntax-ns#" xmlns:svg="http://www.w3.org/2000/svg" xmlns:sodipodi="http://sodipodi.sourceforge.net/DTD/sodipodi-0.dtd" xmlns:inkscape="http://www.inkscape.org/namespaces/inkscape" inkscape:output_extension="org.inkscape.output.svg.inkscape" sodipodi:docname="Flower-of-life with math final.svg" inkscape:version="0.46" sodipodi:version="0.32"
	 xmlns="http://www.w3.org/2000/svg" xmlns:xlink="http://www.w3.org/1999/xlink" x="0px" y="0px" width="304px" height="304px"
	 viewBox="0 0 304 304" enable-background="new 0 0 304 304" xml:space="preserve">
<g id="XMLID_1_">
	<g>
		<path fill="#507BFF" d="M281.901,227h0.01c-8.65,14.94-24.8,25-43.3,25c0.02-0.04,0.04-0.08,0.069-0.12
			c0.021-0.06,0.051-0.11,0.09-0.16C247.731,236.41,264.151,227,281.901,227z"/>
		<path fill="#FE5DFF" d="M281.79,176.8c0.03,0.07,0.07,0.13,0.11,0.2c-18.341,0-34.37-9.88-43.07-24.61
			c-0.07-0.13-0.15-0.26-0.22-0.39C257.031,152,273.12,161.97,281.79,176.8z"/>
		<path fill="#69DFFF" d="M281.901,177c-0.04,0.07-0.08,0.13-0.11,0.2c-8.67,14.83-24.76,24.8-43.18,24.8
			c0.09-0.17,0.189-0.34,0.29-0.51c4.22-7.15,10.3-13.34,18-17.79C264.5,179.31,273.13,177,281.901,177z"/>
		<path fill="#C630D3" d="M238.83,101.61c8.7-14.73,24.729-24.61,43.07-24.61c-9.25,16.02-26.04,24.98-43.29,25
			C238.68,101.87,238.76,101.74,238.83,101.61z"/>
		<path fill="#69DFFF" d="M238.611,52H238.6c-0.01,0-0.029,0-0.04,0c-17.8-0.02-34.25-9.49-43.189-24.88
			c-0.01-0.03-0.03-0.06-0.05-0.09c-0.011-0.01-0.011-0.02-0.021-0.03c0.04,0,0.061,0,0.101,0
			C213.87,27.04,229.981,37.08,238.611,52z"/>
		<path fill="#FE5DFF" d="M238.6,252h0.011c-8.65,14.95-24.801,25-43.311,25c0.021-0.04,0.05-0.08,0.07-0.12
			C204.321,261.48,220.79,252,238.6,252z"/>
		<path fill="#FE5DFF" d="M238.6,102c0,0-0.01,0,0,0.01c-0.069,0.1-0.13,0.2-0.18,0.31C229.731,117.09,213.67,127,195.3,127
			c0.021-0.04,0.04-0.08,0.07-0.12c8.649-14.87,24.76-24.87,43.189-24.88C238.571,102,238.59,102,238.6,102z"/>
		<path fill="#507BFF" d="M238.42,101.68c0.05,0.11,0.11,0.21,0.18,0.31c0,0,0,0,0,0.01c-0.01,0-0.029,0-0.04,0
			c-8.489,0-17.09-2.16-24.96-6.71c-7.84-4.53-13.989-10.86-18.229-18.17c-0.021-0.04-0.05-0.08-0.07-0.12
			C213.67,77,229.731,86.91,238.42,101.68z"/>
		<path fill="#FE5DFF" d="M195.37,27.12C199.59,34.45,202,42.94,202,52s-2.41,17.55-6.63,24.88c-0.03,0.04-0.05,0.08-0.07,0.12
			c-0.069-0.13-0.14-0.25-0.22-0.38c-8.41-14.9-8.95-33.73,0.22-49.62c0.01,0.01,0.01,0.02,0.021,0.03
			C195.34,27.06,195.361,27.09,195.37,27.12z"/>
		<path fill="#C630D3" d="M195.37,177.12c4.22,7.33,6.63,15.82,6.63,24.88s-2.41,17.55-6.63,24.88c-0.021,0.04-0.04,0.08-0.07,0.12
			c-0.02-0.04-0.04-0.08-0.069-0.12c-4.221-7.33-6.631-15.82-6.631-24.88s2.41-17.55,6.631-24.88c0.02-0.04,0.039-0.08,0.069-0.12
			C195.321,177.04,195.34,177.08,195.37,177.12z"/>
		<path fill="#69DFFF" d="M195.3,127c-0.03,0.04-0.05,0.08-0.069,0.12C186.571,142,170.45,152,152,152
			c0.03-0.04,0.05-0.08,0.07-0.12C160.731,137,176.85,127,195.3,127z"/>
		<path fill="#507BFF" d="M195.231,226.88c0.029,0.04,0.05,0.08,0.069,0.12c-0.01,0-0.03,0-0.04,0
			c-18.43-0.01-34.54-10.01-43.19-24.88c-0.02-0.04-0.04-0.08-0.07-0.12C170.45,202,186.571,212,195.231,226.88z"/>
		<path fill="#69DFFF" d="M177,258.7c7.6,4.39,13.91,10.7,18.3,18.3c-18.27,0-34.26-9.81-42.98-24.45c-0.1-0.189-0.2-0.37-0.31-0.55
			c0.1,0,0.21,0,0.31,0C160.71,252.04,169.2,254.2,177,258.7z"/>
		<path fill="#C630D3" d="M152.07,52.12c4.22,7.33,6.63,15.82,6.63,24.88s-2.41,17.55-6.63,24.88c-0.02,0.04-0.04,0.08-0.07,0.12
			c-0.03-0.04-0.05-0.08-0.07-0.12c-4.22-7.33-6.63-15.82-6.63-24.88c0-8.9,2.33-17.25,6.41-24.49c0.11-0.17,0.2-0.33,0.29-0.5h0.01
			C152.03,52.05,152.05,52.08,152.07,52.12z"/>
		<path fill="#FE5DFF" d="M152.07,152.12c4.22,7.33,6.63,15.82,6.63,24.88s-2.41,17.55-6.63,24.88c-0.03,0.04-0.05,0.08-0.07,0.12
			c-0.02-0.04-0.04-0.08-0.07-0.12c-4.22-7.33-6.63-15.82-6.63-24.88s2.41-17.55,6.63-24.88c0.03-0.04,0.05-0.08,0.07-0.12
			C152.03,152.04,152.05,152.08,152.07,152.12z"/>
		<path fill="#507BFF" d="M152,102c-0.02,0.04-0.04,0.08-0.07,0.12C143.27,117,127.15,127,108.7,127c0.03-0.04,0.05-0.08,0.07-0.12
			C117.43,112,133.55,102,152,102z"/>
		<path fill="#FE5DFF" d="M152,251.99c-0.09,0-0.18,0-0.27,0.01c-18.16-0.1-34.03-9.88-42.71-24.45c-0.1-0.189-0.2-0.37-0.31-0.55
			c0.2,0,0.4,0,0.6-0.01c8.3,0.09,16.69,2.25,24.39,6.7c7.72,4.449,13.8,10.659,18.02,17.819C151.81,251.67,151.9,251.83,152,251.99
			z"/>
		<path fill="#507BFF" d="M152,2c-8.93,15.47-25.44,25-43.3,25C117.34,12.05,133.5,2,152,2z"/>
		<path fill="#69DFFF" d="M108.77,177.12c4.22,7.33,6.63,15.82,6.63,24.88s-2.41,17.55-6.63,24.88c-0.02,0.04-0.04,0.07-0.06,0.101
			h-0.01h-0.01c-0.08-0.16-0.17-0.32-0.27-0.471C104.33,219.27,102,210.9,102,202c0-9.06,2.41-17.55,6.63-24.88
			c0.03-0.04,0.05-0.08,0.07-0.12C108.73,177.04,108.75,177.08,108.77,177.12z"/>
		<path fill="#FE5DFF" d="M108.7,27c-0.02,0.04-0.05,0.08-0.07,0.12C99.68,42.52,83.21,52,65.4,52h-0.01
			C74.04,37.05,90.19,27,108.7,27z"/>
		<path fill="#507BFF" d="M108.63,76.88c0.03,0.04,0.05,0.08,0.07,0.12c-0.09,0-0.18,0-0.27,0c-17.12-0.1-33.73-9-42.96-24.87
			c-0.02-0.04-0.04-0.08-0.07-0.12V52C83.85,52,99.97,62,108.63,76.88z"/>
		<path fill="#FE5DFF" d="M108.63,126.88c0.03,0.04,0.05,0.08,0.07,0.12c-18.37,0-34.43-9.91-43.12-24.68
			c-0.03-0.07-0.07-0.14-0.11-0.2c-0.02-0.04-0.04-0.08-0.06-0.11c0.1,0,0.2,0,0.3-0.01C84.03,102.11,100.02,112.08,108.63,126.88z"
			/>
		<path fill="#C630D3" d="M108.63,176.88c0.03,0.04,0.05,0.08,0.07,0.12c-18.37,0-34.43-9.91-43.12-24.68
			c-0.05-0.11-0.11-0.21-0.18-0.31c0,0,0,0,0-0.01C83.85,152,99.97,162,108.63,176.88z"/>
		<path fill="#507BFF" d="M108.63,276.88c0.02,0.04,0.05,0.08,0.07,0.12c-18.51,0-34.66-10.05-43.31-25h0.01
			C83.21,252,99.68,261.48,108.63,276.88z"/>
		<path fill="#C630D3" d="M108.7,227c-0.02,0.04-0.04,0.08-0.07,0.12C99.97,242,83.85,252,65.4,252
			c9.15-15.86,25.67-24.81,42.74-25.01C108.33,227,108.51,227,108.7,227z"/>
		<path fill="#69DFFF" d="M65.39,102c-0.09,0-0.17,0-0.26,0c-17.12-0.1-33.74-9-42.96-24.87c-0.02-0.04-0.05-0.08-0.07-0.12V77
			c18.34,0,34.37,9.88,43.07,24.61C65.24,101.74,65.32,101.87,65.39,102z"/>
		<path fill="#507BFF" d="M65.38,201.98c-0.18,0-0.37,0-0.55,0.01c-18.19-0.2-34.04-10.11-42.62-24.79
			c-0.03-0.07-0.07-0.13-0.11-0.2c18.34,0,34.37,9.88,43.07,24.61C65.24,201.74,65.31,201.86,65.38,201.98z"/>
		<path fill="#69DFFF" d="M22.21,127.2c8.78,15.37,8.78,34.229,0,49.6c-0.04,0.061-0.08,0.13-0.12,0.2
			c-4.25-7.35-6.69-15.89-6.69-25c0-9.11,2.44-17.65,6.69-25C22.13,127.07,22.17,127.14,22.21,127.2z"/>
		<path fill="#FE5DFF" d="M22.21,177.2c8.82,15.43,8.78,34.399-0.11,49.8h-0.01c-0.06-0.11-0.13-0.23-0.2-0.35
			c-4.13-7.271-6.49-15.69-6.49-24.65c0-9.11,2.44-17.65,6.69-25C22.13,177.07,22.17,177.14,22.21,177.2z"/>
	</g>
	<g>
		<path fill="none" stroke="#000000" d="M152,2c55.56,0,104.07,30.21,129.99,75.11C294.72,99.15,302,124.72,302,152
			c0,27.28-7.28,52.85-20.01,74.89C256.071,271.79,207.56,302,152,302c-55.66,0-104.24-30.32-130.12-75.34
			C9.23,204.68,2,179.18,2,152c0-27.18,7.23-52.68,19.88-74.66C47.76,32.32,96.34,2,152,2z"/>
		<path fill="none" stroke="#000000" d="M108.77,126.88C117.43,112,133.55,102,152,102s34.57,10,43.23,24.88"/>
		<path fill="none" stroke="#000000" d="M108.63,176.88c-4.22-7.33-6.63-15.82-6.63-24.88c0-9.06,2.41-17.55,6.63-24.88"/>
		<path fill="none" stroke="#000000" d="M195.231,177.12C186.571,192,170.45,202,152,202s-34.57-10-43.23-24.88"/>
		<path fill="none" stroke="#000000" d="M195.37,127.12c4.22,7.33,6.63,15.82,6.63,24.88c0,9.06-2.41,17.55-6.63,24.88"/>
		<path fill="none" stroke="#000000" d="M108.96,76.56c8.65-14.62,24.53-24.44,42.72-24.56c0.11,0,0.21,0,0.32,0"/>
		<path fill="none" stroke="#000000" d="M108.7,77c0.07-0.13,0.14-0.25,0.22-0.37"/>
		<path fill="none" stroke="#000000" d="M108.63,126.88c-4.22-7.33-6.63-15.82-6.63-24.88c0-8.9,2.33-17.25,6.41-24.49"/>
		<path fill="none" stroke="#000000" d="M195.231,127.12C186.571,142,170.45,152,152,152s-34.57-10-43.23-24.88"/>
		<path fill="none" stroke="#000000" d="M195.37,77.12C199.59,84.45,202,92.94,202,102s-2.41,17.55-6.63,24.88"/>
		<path fill="none" stroke="#000000" d="M152.01,52c0.09,0,0.17,0,0.26,0c18.23,0.1,34.15,9.95,42.81,24.62"/>
		<path fill="none" stroke="#000000" d="M152.07,101.88c8.65-14.87,24.76-24.87,43.19-24.88"/>
		<path fill="none" stroke="#000000" d="M151.93,151.88c-4.22-7.33-6.63-15.82-6.63-24.88s2.41-17.55,6.63-24.88"/>
		<path fill="none" stroke="#000000" d="M238.42,152.32C229.731,167.09,213.67,177,195.3,177c-18.45,0-34.569-10-43.23-24.88"/>
		<path fill="none" stroke="#000000" d="M238.6,101.99c0,0,0,0,0.011,0.01c0.069,0.13,0.149,0.26,0.22,0.39
			c4.12,7.27,6.47,15.66,6.47,24.61s-2.35,17.34-6.47,24.61c-0.07,0.13-0.15,0.26-0.22,0.39c-0.011,0.01-0.011,0.01-0.011,0.01"/>
		<path fill="none" stroke="#000000" d="M195.3,77c18.37,0,34.431,9.91,43.12,24.68"/>
		<path fill="none" stroke="#000000" d="M152.07,151.88C160.731,137,176.85,127,195.3,127c18.37,0,34.431,9.91,43.12,24.68"/>
		<path fill="none" stroke="#000000" d="M151.93,201.88c-4.22-7.33-6.63-15.82-6.63-24.88s2.41-17.55,6.63-24.88"/>
		<path fill="none" stroke="#000000" d="M195.26,227c-18.43-0.01-34.54-10.01-43.19-24.88"/>
		<path fill="none" stroke="#000000" d="M238.3,202.52c-8.71,14.66-24.7,24.48-42.99,24.48"/>
		<path fill="none" stroke="#000000" d="M238.6,151.99c0,0,0,0,0.011,0.01c0.069,0.13,0.149,0.26,0.22,0.39
			c4.12,7.27,6.47,15.66,6.47,24.61c0,8.9-2.33,17.25-6.399,24.49c-0.101,0.17-0.2,0.34-0.29,0.51
			c-0.011,0.01-0.011,0.01-0.011,0.01c-0.069,0.12-0.14,0.24-0.22,0.36"/>
		<path fill="none" stroke="#000000" d="M108.77,176.88C117.43,162,133.55,152,152,152s34.57,10,43.23,24.88"/>
		<path fill="none" stroke="#000000" d="M108.7,226.99c0,0-0.01,0-0.01-0.01c-0.09-0.15-0.18-0.311-0.27-0.471
			C104.33,219.27,102,210.9,102,202c0-9.06,2.41-17.55,6.63-24.88"/>
		<path fill="none" stroke="#000000" d="M152,252c-0.09,0-0.18,0-0.27,0c-18.16-0.1-34.03-9.88-42.71-24.45
			c-0.11-0.18-0.22-0.359-0.32-0.55"/>
		<path fill="none" stroke="#000000" d="M195.09,227.37c-8.649,14.66-24.56,24.51-42.77,24.63c-0.1,0-0.21,0-0.31,0"/>
		<path fill="none" stroke="#000000" d="M195.37,177.12c4.22,7.33,6.63,15.82,6.63,24.88s-2.41,17.55-6.63,24.88
			c-0.021,0.04-0.04,0.08-0.07,0.12"/>
		<path fill="none" stroke="#000000" d="M65.58,151.68C74.27,136.91,90.33,127,108.7,127c18.45,0,34.57,10,43.23,24.88
			c0.03,0.04,0.05,0.08,0.07,0.12c0.03,0.04,0.05,0.08,0.07,0.12c4.22,7.33,6.63,15.82,6.63,24.88s-2.41,17.55-6.63,24.88"/>
		<path fill="none" stroke="#000000" d="M65.4,202.01c0,0,0,0-0.01-0.01c0,0,0-0.01-0.01-0.02c-0.07-0.12-0.14-0.24-0.21-0.37
			c-4.12-7.271-6.47-15.66-6.47-24.61s2.35-17.34,6.47-24.61c0.07-0.13,0.15-0.26,0.22-0.39c0.01-0.01,0.01-0.01,0.01-0.01"/>
		<path fill="none" stroke="#000000" d="M151.93,202.12c-8.56,14.72-24.42,24.66-42.62,24.87c-0.2,0.01-0.4,0.01-0.6,0.01h-0.01
			c-0.19,0-0.37,0-0.56-0.01C90,226.8,74.18,216.94,65.58,202.32"/>
		<path fill="none" stroke="#000000" d="M65.7,101.48C74.37,86.89,90.25,77.1,108.43,77c0.09,0,0.18,0,0.27,0"/>
		<path fill="none" stroke="#000000" d="M65.39,102c0.01-0.01,0.01-0.01,0.01-0.01c0.07-0.12,0.14-0.24,0.22-0.36"/>
		<path fill="none" stroke="#000000" d="M65.4,152.01c0,0,0,0-0.01-0.01c-0.07-0.13-0.15-0.26-0.22-0.39
			c-4.12-7.27-6.47-15.66-6.47-24.61c0-8.9,2.33-17.25,6.4-24.49c0.1-0.17,0.19-0.34,0.29-0.5"/>
		<path fill="none" stroke="#000000" d="M152.07,102.12c4.22,7.33,6.63,15.82,6.63,24.88s-2.41,17.55-6.63,24.88
			c-0.02,0.04-0.04,0.08-0.07,0.12c-0.02,0.04-0.04,0.08-0.07,0.12C143.27,167,127.15,177,108.7,177
			c-18.37,0-34.43-9.91-43.12-24.68"/>
		<path fill="none" stroke="#000000" d="M108.71,77c0.1,0,0.21,0,0.31,0c18.32,0.12,34.3,10.09,42.91,24.88"/>
		<path fill="none" stroke="#000000" d="M152.26,51.56c8.7-14.7,24.721-24.56,43.03-24.56"/>
		<path fill="none" stroke="#000000" d="M152,52c0.07-0.13,0.14-0.25,0.22-0.37"/>
		<path fill="none" stroke="#000000" d="M238.42,102.32C229.731,117.09,213.67,127,195.3,127c-18.45,0-34.569-10-43.23-24.88
			c-0.03-0.04-0.05-0.08-0.07-0.12c-0.03-0.04-0.05-0.08-0.07-0.12c-4.22-7.33-6.63-15.82-6.63-24.88c0-8.9,2.33-17.25,6.41-24.49"
			/>
		<path fill="none" stroke="#000000" d="M238.77,52.28c4.15,7.29,6.53,15.73,6.53,24.72c0,8.95-2.35,17.34-6.47,24.61
			c-0.07,0.13-0.15,0.26-0.22,0.39c-0.011,0.01-0.011,0.01-0.011,0.01"/>
		<path fill="none" stroke="#000000" d="M195.401,27c18.47,0.04,34.58,10.08,43.21,25c0.02,0.04,0.04,0.08,0.069,0.12"/>
		<path fill="none" stroke="#000000" d="M238.56,202c-18.43-0.01-34.54-10.01-43.189-24.88c-0.03-0.04-0.05-0.08-0.07-0.12
			c-0.03-0.04-0.05-0.08-0.069-0.12c-4.221-7.33-6.631-15.82-6.631-24.88c0-9.06,2.41-17.55,6.631-24.88
			c0.02-0.04,0.039-0.08,0.069-0.12c0.021-0.04,0.04-0.08,0.07-0.12c8.649-14.87,24.76-24.87,43.189-24.88"/>
		<path fill="none" stroke="#000000" d="M238.611,102c18.42,0,34.51,9.97,43.18,24.8c0.04,0.06,0.08,0.13,0.12,0.2
			c4.25,7.35,6.689,15.89,6.689,25c0,9.11-2.439,17.65-6.689,25c-0.04,0.07-0.08,0.14-0.12,0.2c-8.67,14.83-24.76,24.8-43.18,24.8"
			/>
		<path fill="none" stroke="#000000" d="M152,251.99c-0.1-0.16-0.19-0.32-0.28-0.48c-4.09-7.24-6.42-15.609-6.42-24.51
			c0-9.06,2.41-17.55,6.63-24.88c0.02-0.04,0.04-0.08,0.07-0.12c0.02-0.04,0.04-0.08,0.07-0.12C160.731,187,176.85,177,195.3,177
			c18.37,0,34.431,9.91,43.12,24.68"/>
		<path fill="none" stroke="#000000" d="M238.68,251.88c-0.029,0.04-0.05,0.08-0.069,0.12c-8.65,14.95-24.801,25-43.311,25
			c-18.27,0-34.26-9.81-42.98-24.45c-0.11-0.18-0.22-0.359-0.32-0.55"/>
		<path fill="none" stroke="#000000" d="M238.6,201.99c0,0,0,0,0.011,0.01c0.069,0.13,0.149,0.26,0.22,0.39
			c4.12,7.271,6.47,15.66,6.47,24.61c0,8.99-2.38,17.43-6.53,24.72"/>
		<path fill="none" stroke="#000000" d="M65.58,201.68C74.27,186.91,90.33,177,108.7,177c18.45,0,34.57,10,43.23,24.88
			c0.03,0.04,0.05,0.08,0.07,0.12c0.03,0.04,0.05,0.08,0.07,0.12c4.22,7.33,6.63,15.82,6.63,24.88s-2.41,17.55-6.63,24.88"/>
		<path fill="none" stroke="#000000" d="M65.23,251.72c-4.15-7.29-6.53-15.729-6.53-24.72c0-8.95,2.35-17.34,6.47-24.61
			c0.07-0.13,0.15-0.26,0.22-0.39c0.01-0.01,0.01-0.01,0.01-0.01c0-0.01,0-0.01,0-0.01"/>
		<path fill="none" stroke="#000000" d="M151.79,252.36C143.1,267.11,127.05,277,108.7,277c-18.51,0-34.66-10.05-43.31-25
			c-0.02-0.04-0.04-0.08-0.07-0.12"/>
		<path fill="none" stroke="#000000" d="M152,251.99c0.01,0.01,0,0.01,0,0.01"/>
		<path fill="none" stroke="#000000" d="M65.4,102c0.1,0,0.21,0,0.31,0c18.32,0.11,34.31,10.08,42.92,24.88
			c0.03,0.04,0.05,0.08,0.07,0.12c0.03,0.04,0.05,0.08,0.07,0.12c4.22,7.33,6.63,15.82,6.63,24.88c0,9.06-2.41,17.55-6.63,24.88
			c-0.02,0.04-0.04,0.08-0.07,0.12c-0.02,0.04-0.04,0.08-0.07,0.12c-8.57,14.72-24.43,24.66-42.63,24.87C65.8,202,65.6,202,65.4,202
			h-0.01c-0.19,0-0.37,0-0.56-0.01c-18.19-0.2-34.04-10.11-42.62-24.79c-0.04-0.061-0.08-0.13-0.12-0.2
			c-4.25-7.35-6.69-15.89-6.69-25c0-9.11,2.44-17.65,6.69-25c0.04-0.07,0.08-0.14,0.12-0.2c8.63-14.76,24.61-24.7,42.92-24.8
			c0.09,0,0.17,0,0.26,0H65.4z"/>
		<path fill="none" stroke="#000000" d="M65.32,52.12c0.03-0.04,0.05-0.08,0.07-0.12c8.65-14.95,24.8-25,43.31-25
			c18.34,0,34.38,9.88,43.08,24.62"/>
		<path fill="none" stroke="#000000" d="M65.39,102.01c0,0,0.01,0,0-0.01c-0.07-0.13-0.15-0.26-0.22-0.39
			C61.05,94.34,58.7,85.95,58.7,77c0-8.99,2.38-17.43,6.53-24.72"/>
		<path fill="none" stroke="#000000" d="M65.47,102.12c-0.03-0.03-0.05-0.07-0.07-0.11"/>
		<path fill="none" stroke="#000000" d="M152.07,52.12c4.22,7.33,6.63,15.82,6.63,24.88s-2.41,17.55-6.63,24.88
			c-0.02,0.04-0.04,0.08-0.07,0.12c-0.02,0.04-0.04,0.08-0.07,0.12C143.27,117,127.15,127,108.7,127
			c-18.37,0-34.43-9.91-43.12-24.68"/>
		<path fill="none" stroke="#000000" d="M108.7,27c8.64-14.95,24.8-25,43.3-25s34.66,10.05,43.3,25c0.01,0.01,0.01,0.02,0.021,0.03"
			/>
		<path fill="none" stroke="#000000" d="M108.63,76.88C104.41,69.55,102,61.06,102,52s2.41-17.55,6.63-24.88"/>
		<path fill="none" stroke="#000000" d="M195.231,77.12C186.571,92,170.45,102,152,102s-34.57-10-43.23-24.88"/>
		<path fill="none" stroke="#000000" d="M195.37,27.12C199.59,34.45,202,42.94,202,52s-2.41,17.55-6.63,24.88"/>
		<path fill="none" stroke="#000000" d="M238.6,152c-18.449,0-34.569-10-43.229-24.88c-0.03-0.04-0.05-0.08-0.07-0.12
			c-0.03-0.04-0.05-0.08-0.069-0.12c-4.221-7.33-6.631-15.82-6.631-24.88s2.41-17.55,6.631-24.88c0.02-0.04,0.039-0.08,0.069-0.12
			c0.021-0.04,0.04-0.08,0.07-0.12C204.02,62.01,220.13,52.01,238.56,52c0.011,0,0.03,0,0.04,0h0.011c18.5,0,34.649,10.06,43.3,25
			c0.02,0.04,0.04,0.08,0.07,0.12c4.21,7.33,6.619,15.82,6.619,24.88c0,9.11-2.439,17.65-6.689,25c-0.04,0.07-0.08,0.14-0.12,0.2
			c-8.67,14.83-24.76,24.8-43.18,24.8"/>
		<path fill="none" stroke="#000000" d="M195.231,226.88c-4.221-7.33-6.631-15.82-6.631-24.88s2.41-17.55,6.631-24.88
			c0.02-0.04,0.039-0.08,0.069-0.12c0.021-0.04,0.04-0.08,0.07-0.12C204.031,162,220.151,152,238.6,152h0.011
			c18.42,0,34.51,9.97,43.18,24.8c0.04,0.061,0.08,0.13,0.12,0.2c4.25,7.35,6.689,15.89,6.689,25c0,9.06-2.409,17.55-6.619,24.88
			c-0.03,0.04-0.051,0.08-0.07,0.12c-8.65,14.94-24.8,25-43.3,25H238.6c-18.449,0-34.569-10-43.229-24.88"/>
		<path fill="none" stroke="#000000" d="M108.77,226.88C117.43,212,133.55,202,152,202s34.57,10,43.23,24.88
			c0.029,0.04,0.05,0.08,0.069,0.12"/>
		<path fill="none" stroke="#000000" d="M108.63,276.88c-4.22-7.33-6.63-15.82-6.63-24.88s2.41-17.55,6.63-24.88"/>
		<path fill="none" stroke="#000000" d="M195.3,277c-8.64,14.95-24.8,25-43.3,25s-34.66-10.05-43.3-25"/>
		<path fill="none" stroke="#000000" d="M195.3,227.01c0.03,0.03,0.05,0.07,0.07,0.11c4.22,7.33,6.63,15.82,6.63,24.88
			s-2.41,17.55-6.63,24.88"/>
		<path fill="none" stroke="#000000" d="M65.4,152c18.45,0,34.57,10,43.23,24.88c0.03,0.04,0.05,0.08,0.07,0.12
			c0.03,0.04,0.05,0.08,0.07,0.12c4.22,7.33,6.63,15.82,6.63,24.88s-2.41,17.55-6.63,24.88c-0.02,0.04-0.04,0.07-0.06,0.101
			c0,0.01-0.01,0.01-0.01,0.01c0.01,0.01,0,0.01,0,0.01c-0.02,0.04-0.04,0.08-0.07,0.12C99.97,242,83.85,252,65.4,252h-0.01
			c-18.5,0-34.65-10.06-43.3-25c-0.06-0.11-0.13-0.23-0.2-0.35c-4.13-7.271-6.49-15.69-6.49-24.65c0-9.11,2.44-17.65,6.69-25
			c0.04-0.07,0.08-0.14,0.12-0.2c8.67-14.83,24.76-24.8,43.18-24.8"/>
		<path fill="none" stroke="#000000" d="M108.71,77.01c0.02,0.03,0.04,0.07,0.06,0.11c4.22,7.33,6.63,15.82,6.63,24.88
			s-2.41,17.55-6.63,24.88c-0.02,0.04-0.04,0.08-0.07,0.12c-0.02,0.04-0.04,0.08-0.07,0.12C99.97,142,83.85,152,65.4,152h-0.01
			c-18.42,0-34.51-9.97-43.18-24.8c-0.04-0.06-0.08-0.13-0.12-0.2c-4.25-7.35-6.69-15.89-6.69-25c0-8.96,2.36-17.38,6.49-24.65
			c0.07-0.12,0.14-0.24,0.2-0.35c8.65-14.94,24.8-25,43.3-25h0.01c18.45,0,34.57,10,43.23,24.88c0.03,0.04,0.05,0.08,0.07,0.12"/>
		<path fill="none" stroke="#000000" d="M152,2c-8.93,15.47-25.44,25-43.3,25"/>
		<path fill="none" stroke="#000000" d="M195.401,27c-0.04,0-0.061,0-0.101,0h-0.01c-17.87,0-34.36-9.53-43.29-25
			c-0.04-0.06-0.07-0.13-0.11-0.19"/>
		<path fill="none" stroke="#000000" d="M238.56,52c-17.8-0.02-34.25-9.49-43.189-24.88c-0.01-0.03-0.03-0.06-0.05-0.09"/>
		<path fill="none" stroke="#000000" d="M281.901,77c-17.75,0-34.17-9.41-43.131-24.72c-0.039-0.05-0.069-0.1-0.09-0.16
			c-0.029-0.04-0.06-0.08-0.08-0.12"/>
		<path fill="none" stroke="#000000" d="M281.901,127c-0.04-0.07-0.08-0.13-0.11-0.2c-8.82-15.43-8.78-34.4,0.11-49.8"/>
		<path fill="none" stroke="#000000" d="M281.901,177c-0.04-0.07-0.08-0.13-0.11-0.2c-8.78-15.37-8.78-34.23,0-49.6
			c0.03-0.07,0.07-0.13,0.11-0.2"/>
		<path fill="none" stroke="#000000" d="M281.901,227c-8.891-15.4-8.931-34.37-0.11-49.8c0.03-0.07,0.07-0.13,0.11-0.2"/>
		<path fill="none" stroke="#000000" d="M238.6,252c0.021-0.04,0.051-0.08,0.08-0.12c0.021-0.06,0.051-0.11,0.09-0.16
			c8.961-15.31,25.381-24.72,43.131-24.72"/>
		<path fill="none" stroke="#000000" d="M195.3,277c0.021-0.04,0.05-0.08,0.07-0.12C204.321,261.48,220.79,252,238.6,252"/>
		<path fill="none" stroke="#000000" d="M152.06,301.91c8.93-15.42,25.42-24.91,43.24-24.91"/>
		<path fill="none" stroke="#000000" d="M108.7,277c17.86,0,34.37,9.53,43.3,25"/>
		<path fill="none" stroke="#000000" d="M65.4,252c17.81,0,34.28,9.48,43.23,24.88c0.02,0.04,0.05,0.08,0.07,0.12"/>
		<path fill="none" stroke="#000000" d="M22.1,227c17.75,0,34.17,9.41,43.13,24.72c0.04,0.05,0.07,0.101,0.09,0.16
			c0.03,0.04,0.06,0.08,0.08,0.12"/>
		<path fill="none" stroke="#000000" d="M22.1,127c0.04,0.07,0.08,0.13,0.11,0.2c8.78,15.37,8.78,34.229,0,49.6
			c-0.03,0.07-0.07,0.13-0.11,0.2"/>
		<path fill="none" stroke="#000000" d="M22.1,177c0.04,0.07,0.08,0.13,0.11,0.2c8.82,15.43,8.78,34.399-0.11,49.8"/>
		<path fill="none" stroke="#000000" d="M22.17,77.13c8.82,15.38,8.84,34.28,0.04,49.67c-0.03,0.07-0.07,0.13-0.11,0.2"/>
		<path fill="none" stroke="#000000" d="M65.4,52.01c-0.03,0.04-0.05,0.07-0.08,0.11c-0.02,0.06-0.05,0.11-0.09,0.16
			C56.27,67.59,39.85,77,22.1,77"/>
		<path fill="none" stroke="#000000" d="M108.7,27c-0.02,0.04-0.05,0.08-0.07,0.12C99.68,42.52,83.21,52,65.4,52"/>
		<path fill="none" stroke="#000000" d="M152,52c0.01,0,0,0.01,0,0.01c-0.09,0.17-0.18,0.33-0.29,0.5
			c-4.22,7.15-10.29,13.34-18,17.79c-7.8,4.5-16.3,6.66-24.69,6.7c-0.11,0.01-0.21,0.01-0.31,0.01h-0.01c-0.09,0-0.18,0-0.27-0.01
			c-17.12-0.1-33.73-9-42.96-24.87"/>
		<path fill="none" stroke="#000000" d="M152,2c9.16,15.87,8.64,34.67,0.26,49.56c-0.01,0.03-0.02,0.05-0.04,0.07
			c-0.06,0.13-0.13,0.25-0.21,0.37"/>
		<path fill="none" stroke="#000000" d="M195.3,27c-9.2,15.94-25.859,24.9-43.03,25c-0.09,0.01-0.17,0.01-0.26,0.01H152
			c-0.11,0-0.21,0-0.32-0.01c-8.39-0.04-16.89-2.2-24.68-6.7c-7.6-4.39-13.91-10.7-18.3-18.3"/>
		<path fill="none" stroke="#000000" d="M238.6,101.99c-0.069-0.1-0.13-0.2-0.18-0.31c-4.15-7.28-6.52-15.71-6.52-24.68
			c0-8.78,2.31-17.4,6.699-25"/>
		<path fill="none" stroke="#000000" d="M281.901,127c-18.341,0-34.37-9.88-43.07-24.61c-0.08-0.12-0.15-0.25-0.23-0.38"/>
		<path fill="none" stroke="#000000" d="M238.6,201.99c0.091-0.17,0.19-0.34,0.301-0.5c4.22-7.15,10.3-13.34,18-17.79
			c7.6-4.391,16.229-6.7,25-6.7"/>
		<path fill="none" stroke="#000000" d="M238.6,252c-9.149-15.84-8.64-34.6-0.3-49.48c0.021-0.05,0.05-0.1,0.08-0.149
			c0.07-0.13,0.14-0.25,0.22-0.37"/>
		<path fill="none" stroke="#000000" d="M152.01,251.99c0.1,0,0.2,0,0.31,0.01c8.39,0.04,16.88,2.2,24.68,6.7
			c7.6,4.39,13.91,10.7,18.3,18.3"/>
		<path fill="none" stroke="#000000" d="M108.76,276.91c9.21-15.891,25.84-24.811,42.97-24.91c0.09-0.01,0.18-0.01,0.27-0.01"/>
		<path fill="none" stroke="#000000" d="M65.4,202.01c0.07,0.101,0.13,0.2,0.18,0.311c4.15,7.279,6.52,15.71,6.52,24.68
			c0,8.78-2.31,17.4-6.7,25"/>
		<path fill="none" stroke="#000000" d="M65.39,201.98c0,0,0.01,0,0.01,0.01"/>
		<path fill="none" stroke="#000000" d="M22.1,177c18.34,0,34.37,9.88,43.07,24.61c0.08,0.12,0.15,0.239,0.21,0.37"/>
		<path fill="none" stroke="#000000" d="M65.39,102.01c-0.09,0.17-0.19,0.34-0.29,0.5c-4.22,7.15-10.3,13.34-18,17.79
			c-7.6,4.39-16.23,6.7-25,6.7"/>
		<path fill="none" stroke="#000000" d="M65.4,52v0.01c0.03,0.04,0.05,0.08,0.07,0.12c9.07,15.81,8.54,34.51,0.23,49.35
			c-0.03,0.05-0.06,0.1-0.08,0.15c-0.08,0.13-0.15,0.25-0.22,0.37"/>
		<path fill="none" stroke="#000000" d="M238.6,52c-9.25,16.03-26.04,24.99-43.3,25c-0.01,0-0.03,0-0.04,0
			c-8.49,0-17.09-2.16-24.96-6.71c-7.84-4.53-13.99-10.86-18.23-18.17c-0.02-0.04-0.04-0.07-0.06-0.11c-0.01,0,0-0.01,0-0.01H152
			c-0.07-0.13-0.14-0.25-0.22-0.38C143.37,36.72,142.83,17.89,152,2"/>
		<path fill="none" stroke="#000000" d="M281.901,77c-9.25,16.02-26.04,24.98-43.29,25H238.6c-0.01,0-0.029,0-0.04,0
			c-8.489,0-17.09-2.16-24.96-6.71c-7.84-4.53-13.989-10.86-18.229-18.17c-0.021-0.04-0.05-0.08-0.07-0.12
			c-0.069-0.13-0.14-0.25-0.22-0.38c-8.41-14.9-8.95-33.73,0.22-49.62"/>
		<path fill="none" stroke="#000000" d="M238.6,151.99c-0.069-0.1-0.13-0.2-0.18-0.31c-4.15-7.28-6.52-15.71-6.52-24.68
			s2.369-17.4,6.52-24.68c0.05-0.11,0.11-0.21,0.18-0.31c-0.01-0.01,0-0.01,0-0.01c0-0.01,0-0.01,0-0.01
			c0.08-0.13,0.15-0.26,0.23-0.38c8.7-14.73,24.729-24.61,43.07-24.61"/>
		<path fill="none" stroke="#000000" d="M281.901,177c-18.341,0-34.37-9.88-43.07-24.61c-0.08-0.12-0.15-0.25-0.23-0.38"/>
		<path fill="none" stroke="#000000" d="M281.901,227c-18.341,0-34.37-9.88-43.07-24.61c-0.08-0.12-0.15-0.25-0.23-0.38
			c0,0,0,0,0-0.01c0,0-0.01,0,0-0.01c-0.069-0.101-0.13-0.2-0.18-0.311c-4.15-7.279-6.52-15.71-6.52-24.68s2.369-17.4,6.52-24.68
			c0.05-0.11,0.11-0.21,0.18-0.31c-0.01-0.01,0-0.01,0-0.01c0-0.01,0-0.01,0-0.01c0.08-0.13,0.15-0.26,0.23-0.38
			c8.7-14.73,24.729-24.61,43.07-24.61"/>
		<path fill="none" stroke="#000000" d="M195.31,227c0.021-0.04,0.04-0.08,0.061-0.12c4.24-7.32,10.399-13.649,18.24-18.18
			c7.87-4.54,16.47-6.7,24.949-6.7c0.011,0,0.03,0,0.04,0h0.011c17.26,0.02,34.04,8.98,43.29,25"/>
		<path fill="none" stroke="#000000" d="M195.3,277c-9.17-15.9-8.63-34.73-0.21-49.63c0.07-0.12,0.141-0.24,0.21-0.36
			c0-0.01,0-0.01,0-0.01"/>
		<path fill="none" stroke="#000000" d="M152.01,251.99c0.01-0.04,0.03-0.07,0.06-0.11c4.23-7.32,10.39-13.649,18.24-18.18
			c7.87-4.54,16.471-6.7,24.95-6.7c0.01,0,0.03,0,0.04,0h0.01c17.25,0.02,34.04,8.98,43.29,25"/>
		<path fill="none" stroke="#000000" d="M152,302c-9.17-15.9-8.63-34.74-0.21-49.64c0.06-0.12,0.13-0.24,0.21-0.36h0.01"/>
		<path fill="none" stroke="#000000" d="M108.7,226.98h0.01c0.2,0,0.4,0,0.6,0.01c8.3,0.09,16.69,2.25,24.39,6.7
			c7.72,4.449,13.8,10.659,18.02,17.819c0.1,0.16,0.2,0.32,0.28,0.48h0.01c0,0,0,0,0,0.01c0.11,0.18,0.21,0.36,0.31,0.55
			c8.31,14.84,8.82,33.55-0.26,49.36c-0.02,0.03-0.03,0.05-0.05,0.08C152,301.99,152,302,152,302"/>
		<path fill="none" stroke="#000000" d="M65.4,252c9.15-15.86,25.67-24.81,42.74-25.01c0.18-0.01,0.37-0.01,0.55-0.01"/>
		<path fill="none" stroke="#000000" d="M22.1,227c9.15-15.86,25.67-24.81,42.73-25.01c0.18-0.01,0.37-0.01,0.55-0.01h0.01h0.01
			h0.01c0.2,0,0.4,0,0.59,0.01c8.3,0.09,16.69,2.25,24.39,6.7c7.72,4.449,13.8,10.659,18.03,17.819c0.1,0.15,0.19,0.311,0.27,0.471
			h0.01c0,0,0,0,0,0.01c0,0,0.01,0,0.01,0.01c0.11,0.18,0.21,0.36,0.31,0.55c8.31,14.84,8.82,33.55-0.26,49.36
			c-0.02,0.03-0.03,0.05-0.05,0.08c-0.01,0-0.01,0.01-0.01,0.01"/>
		<path fill="none" stroke="#000000" d="M65.4,152.01c0.07,0.1,0.13,0.2,0.18,0.31c4.15,7.28,6.52,15.71,6.52,24.68
			s-2.37,17.4-6.52,24.68c-0.05,0.11-0.11,0.21-0.17,0.301c0,0.01-0.01,0.01-0.01,0.01c0.01,0.01,0,0.01,0,0.01
			c0,0.01,0,0.01,0,0.01c-0.08,0.13-0.15,0.26-0.23,0.38C56.47,217.12,40.44,227,22.1,227"/>
		<path fill="none" stroke="#000000" d="M22.1,127c18.34,0,34.37,9.88,43.07,24.61c0.08,0.12,0.15,0.25,0.23,0.38"/>
		<path fill="none" stroke="#000000" d="M65.41,102.01c0.02,0.03,0.04,0.07,0.06,0.11c0.04,0.06,0.08,0.13,0.11,0.2
			c4.15,7.28,6.52,15.71,6.52,24.68s-2.37,17.4-6.52,24.68c-0.05,0.11-0.11,0.21-0.18,0.31c0.01,0.01,0,0.01,0,0.01
			c0,0.01,0,0.01,0,0.01c-0.08,0.13-0.15,0.26-0.23,0.38C56.47,167.12,40.44,177,22.1,177"/>
		<path fill="none" stroke="#000000" d="M22.1,77c18.34,0,34.37,9.88,43.07,24.61c0.08,0.12,0.15,0.25,0.23,0.38c0,0,0,0,0,0.01
			c0,0,0.01,0,0,0.01"/>
		<path fill="none" stroke="#000000" d="M108.7,27c9.16,15.87,8.64,34.67,0.26,49.56c-0.01,0.03-0.02,0.05-0.04,0.07
			c-0.06,0.13-0.13,0.25-0.21,0.37h-0.01c0.01,0,0,0.01,0,0.01c-0.09,0.17-0.18,0.33-0.29,0.5c-4.22,7.15-10.29,13.34-18,17.79
			c-7.8,4.5-16.3,6.66-24.7,6.7c-0.1,0.01-0.2,0.01-0.3,0.01H65.4h-0.01c-0.09,0-0.17,0-0.26-0.01c-17.12-0.1-33.74-9-42.96-24.87
			c-0.02-0.04-0.05-0.08-0.07-0.12V77"/>
	</g>
</g>
</svg>
